<svg width="1080" height="1080" viewBox="0 0 1080 1080" fill="none" xmlns="http://www.w3.org/2000/svg">
<path d="M824.87 0H255.13C114.23 0 0 114.23 0 255.13V824.85C0 965.77 114.23 1080 255.13 1080H824.86C965.76 1080 1079.99 965.77 1079.99 824.85V255.13C1080 114.23 965.77 0 824.87 0Z" fill="#6638E8"/>
<path d="M235.85 249.381V380.361C249.98 398.321 263.98 416.301 277.82 434.261C292.53 452.811 307.11 471.511 321.55 490.371H668.84L728.49 550.001L322 549.551V830.621L176.65 830.171V443.981L235.85 520.401V770.991H262.36V511.111L176.65 400.671V308.581C176.65 275.881 203.16 249.381 235.85 249.381Z" fill="#D9D9D6"/>
<path d="M350.85 576.051L758.01 576.501V443.971L817.21 520.391V830.171H758.01V635.671H410.48C410.48 635.681 382.05 607.251 350.85 576.051Z" fill="#D9D9D6"/>
<path d="M903.34 250.27V447.5L843.71 371.08V309.9H817.2V380.37C831.62 398.92 846.06 417.33 860.49 435.58C874.64 453.84 888.92 472.09 903.34 490.36V770.979C903.34 803.669 876.85 830.18 844.14 830.18H843.71V511.12L758 400.68V250.27H903.34Z" fill="#D9D9D6"/>
<path d="M321.999 249.381V447.511L262.369 371.081V249.381H321.999Z" fill="#D9D9D6"/>
</svg>
