<svg width="215" height="147" viewBox="0 0 215 147" fill="none" xmlns="http://www.w3.org/2000/svg">
<path d="M114.535 49.2385C109.813 47.5985 104.669 47.5985 99.9469 49.2385C98.9554 49.5829 98.4597 49.755 98.2406 49.5321C98.0214 49.3092 98.1954 48.8345 98.5433 47.8852L99.8772 44.245C100.85 41.5892 101.337 40.2614 101.713 37.8624C102.088 35.4635 102.068 34.9741 102.029 33.9953C101.726 26.5471 97.2371 26.7785 92.695 27.6506L85.8998 28.9553C68.2533 32.3436 51.6167 19.5651 50.4213 1.70443C50.3306 0.350199 51.8716 -0.490651 52.9686 0.314463L54.887 1.72242C59.431 5.05738 65.1025 6.4937 70.6939 5.72553L79.9566 4.45297C91.3806 2.08238 97.0926 0.897088 101.306 2.96515C103.341 3.96371 105.093 5.45178 106.405 7.29471C106.723 7.74164 107 8.21584 107.241 8.72343C107.482 8.21584 107.759 7.74164 108.077 7.29471C109.389 5.45178 111.141 3.96371 113.176 2.96515C117.389 0.897088 123.101 2.08238 134.525 4.45297L143.788 5.72553C149.379 6.4937 155.051 5.05738 159.595 1.72242L161.513 0.314463C162.61 -0.490651 164.151 0.350199 164.061 1.70443C162.865 19.5651 146.229 32.3436 128.582 28.9553L121.787 27.6506C117.245 26.7785 112.756 26.5471 112.453 33.9953C112.414 34.9741 112.394 35.4635 112.769 37.8624C113.145 40.2614 113.632 41.5892 114.605 44.245L115.939 47.8851C116.287 48.8345 116.461 49.3092 116.241 49.5321C116.022 49.755 115.526 49.5828 114.535 49.2385Z" fill="#F8112E"/>
<path d="M170.241 51.5033C166.696 51.5033 163.152 52.1964 159.815 53.5828C157.718 54.454 155.672 55.7378 152.119 57.9674L148.76 60.0751C144.796 62.562 143.225 63.5199 141.602 63.9789C139.639 64.5343 137.568 64.5946 135.576 64.1545C133.929 63.7908 132.305 62.926 128.203 60.6742L127.191 60.1182C120.491 56.4393 116.625 54.3166 112.484 53.5023C109.022 52.8216 105.46 52.8216 101.998 53.5023C97.8566 54.3166 93.9909 56.4393 87.2912 60.1182L86.2786 60.6742C82.177 62.926 80.5527 63.7908 78.9062 64.1545C76.9136 64.5946 74.8431 64.5343 72.8796 63.9789C71.2571 63.5199 69.6859 62.562 65.7224 60.0751L62.3632 57.9673C58.8103 55.7379 56.7642 54.454 54.6672 53.5828C51.33 52.1964 47.7855 51.5033 44.241 51.5033V56.4444C47.141 56.4444 50.0411 57.0116 52.7715 58.1459C54.4406 58.8393 56.1207 59.8838 59.9633 62.2948L63.439 64.4757C66.9457 66.6768 69.1456 68.0577 71.5348 68.7335C74.2836 69.5111 77.1823 69.5955 79.9719 68.9794C82.3963 68.4439 84.6729 67.1935 88.3018 65.2003L89.2475 64.681C96.4918 60.7038 99.6542 58.999 102.951 58.3507C105.784 57.7937 108.698 57.7937 111.531 58.3507C114.828 58.999 117.99 60.7038 125.235 64.6811L126.18 65.2003C129.809 67.1934 132.086 68.4439 134.51 68.9794C137.3 69.5955 140.198 69.5111 142.947 68.7335C145.336 68.0577 147.536 66.6768 151.043 64.4757L154.519 62.2948C158.361 59.8838 160.041 58.8393 161.711 58.1459C164.441 57.0116 167.341 56.4444 170.241 56.4444V51.5033Z" fill="#F8112E"/>
<path d="M170.241 60.4935C167.985 60.4935 165.729 60.8368 163.552 61.5235C160.833 62.3813 158.276 63.9861 153.979 66.6827L152.661 67.5096C147.295 70.8765 145.032 72.267 142.669 72.9185C139.99 73.6568 137.173 73.7389 134.456 73.1578C132.059 72.6451 129.719 71.3887 124.166 68.34L123.25 67.8371C118.074 64.9946 114.989 63.3002 111.68 62.6261C108.751 62.0292 105.731 62.0292 102.802 62.6261C99.4933 63.3002 96.4078 64.9946 91.2319 67.837L90.3158 68.34C84.7628 71.3887 82.423 72.6451 80.0256 73.1578C77.3087 73.7389 74.4917 73.6568 71.8132 72.9185C69.4498 72.267 67.1872 70.8765 61.8212 67.5096L60.5033 66.6827C56.2065 63.9861 53.6493 62.3813 50.9303 61.5235C48.7534 60.8368 46.4972 60.4935 44.241 60.4935V65.4347C45.9958 65.4347 47.7506 65.7017 49.4438 66.2358C51.4842 66.8795 53.4799 68.1092 58.209 71.0765L59.5697 71.9302C64.4462 74.9907 67.3515 76.8141 70.5002 77.682C73.944 78.6312 77.5658 78.7368 81.059 77.9897C84.2529 77.3066 87.2594 75.6556 92.306 72.8843L93.2141 72.3857C98.9073 69.26 101.304 67.9739 103.788 67.4678C106.067 67.0035 108.415 67.0035 110.694 67.4678C113.178 67.9739 115.575 69.26 121.268 72.3857L122.176 72.8844C127.223 75.6557 130.229 77.3066 133.423 77.9897C136.916 78.7368 140.538 78.6312 143.982 77.682C147.131 76.8141 150.036 74.9908 154.912 71.9302L156.273 71.0765C161.002 68.1092 162.998 66.8795 165.038 66.2358C166.731 65.7017 168.486 65.4347 170.241 65.4347V60.4935Z" fill="#F8112E"/>
<path d="M166.033 70.0035C167.414 69.657 168.828 69.4837 170.241 69.4837V74.4249C169.231 74.4249 168.222 74.5487 167.235 74.7962C165.426 75.2501 163.673 76.316 159.253 79.0891L158.853 79.34C152.537 83.3035 148.895 85.5892 144.949 86.6479C140.853 87.747 136.557 87.8722 132.404 87.0135C128.403 86.1863 124.634 84.1166 118.098 80.5276L117.368 80.1269C113.161 77.817 111.496 76.9317 109.789 76.5719C108.109 76.2177 106.373 76.2177 104.693 76.5719C102.986 76.9317 101.321 77.817 97.114 80.1269L96.3841 80.5277C89.8481 84.1166 86.0789 86.1863 82.0783 87.0135C77.9252 87.8722 73.6287 87.747 69.5327 86.6479C65.587 85.5891 61.9447 83.3034 55.6288 79.3399L55.2292 79.0891C50.8095 76.316 49.0562 75.2501 47.2469 74.7962C46.2602 74.5487 45.2506 74.4249 44.241 74.4249V69.4837C45.6544 69.4837 47.0679 69.657 48.4492 70.0035C51.1141 70.6721 53.5647 72.2103 57.4715 74.6627L57.8554 74.9036C64.6869 79.1901 67.6724 81.0328 70.8132 81.8755C74.1646 82.7748 77.6798 82.8772 81.0779 82.1747C84.2624 81.5162 87.3502 79.8506 94.4197 75.9692L95.0983 75.5966C98.8227 73.551 101.161 72.2667 103.674 71.737C106.026 71.2411 108.456 71.2411 110.808 71.737C113.321 72.2667 115.659 73.551 119.384 75.5966L120.062 75.9692C127.132 79.8506 130.22 81.5162 133.404 82.1747C136.802 82.8772 140.317 82.7748 143.669 81.8755C146.81 81.0328 149.795 79.1901 156.627 74.9036L157.011 74.6627C160.917 72.2103 163.368 70.6721 166.033 70.0035Z" fill="#F8112E"/>
<path d="M197.346 145.704C198.85 146.12 200.418 146.328 202.05 146.328C204.674 146.328 206.914 145.928 208.77 145.128C210.626 144.296 212.034 143.128 212.994 141.624C213.986 140.12 214.482 138.312 214.482 136.2C214.482 133.864 213.714 131.784 212.178 129.96C210.674 128.104 208.562 126.84 205.842 126.168L201.09 124.968C200.034 124.712 199.202 124.328 198.594 123.816C197.986 123.272 197.682 122.6 197.682 121.8C197.682 120.648 198.05 119.768 198.786 119.16C199.554 118.552 200.61 118.248 201.954 118.248C203.298 118.248 204.386 118.6 205.218 119.304C206.082 120.008 206.642 120.792 206.898 121.656L214.482 119.4C213.81 117.672 212.898 116.232 211.746 115.08C210.626 113.928 209.266 113.064 207.666 112.488C206.066 111.88 204.194 111.576 202.05 111.576C198.146 111.576 195.122 112.488 192.978 114.312C190.834 116.104 189.762 118.616 189.762 121.848C189.762 123.512 190.098 125 190.77 126.312C191.474 127.592 192.434 128.68 193.65 129.576C194.898 130.472 196.354 131.128 198.018 131.544L202.77 132.744C203.922 133.064 204.802 133.528 205.41 134.136C206.05 134.744 206.37 135.448 206.37 136.248C206.37 137.272 205.922 138.104 205.026 138.744C204.162 139.384 203.074 139.688 201.762 139.656C200.418 139.624 199.298 139.272 198.402 138.6C197.538 137.896 196.93 137.08 196.578 136.152L188.946 138.312C189.138 139.4 189.618 140.424 190.386 141.384C191.154 142.312 192.13 143.16 193.314 143.928C194.53 144.664 195.874 145.256 197.346 145.704Z" fill="#2F2D2E"/>
<path d="M159.478 112.152V145.752H181.606V138.648H167.206V132.264H179.062V125.4H167.206V119.256H181.366V112.152H159.478Z" fill="#2F2D2E"/>
<path d="M130.442 145.752V112.152H138.17V138.648H152.474V145.752H130.442Z" fill="#2F2D2E"/>
<path fill-rule="evenodd" clip-rule="evenodd" d="M113.344 139.368L115.734 145.752H123.894L110.838 112.152H102.582L89.5256 145.752H97.6856L100.075 139.368H113.344ZM110.793 132.552L106.71 121.642L102.626 132.552H110.793Z" fill="#2F2D2E"/>
<path d="M75.2685 145.752V132.168H61.3005V145.752H53.5725V112.104H61.3005V125.064H75.2685V112.152H82.9965V145.752H75.2685Z" fill="#2F2D2E"/>
<path d="M39.216 112.152L33.2418 133.709L27.36 112.152H19.68L13.9169 134.077L7.872 112.152H0L9.792 145.752H17.808L23.5116 123.935L29.184 145.752H37.248L47.088 112.152H39.216Z" fill="#2F2D2E"/>
</svg>
